<?xml version="1.0" encoding="UTF-8" standalone="no"?>
<svg
   xmlns:dc="http://purl.org/dc/elements/1.1/"
   xmlns:cc="http://creativecommons.org/ns#"
   xmlns:rdf="http://www.w3.org/1999/02/22-rdf-syntax-ns#"
   xmlns:svg="http://www.w3.org/2000/svg"
   xmlns="http://www.w3.org/2000/svg"
   width="187.63414"
   height="187.72844"
   viewBox="0 0 49.644865 49.669815"
   version="1.1"
   id="svg8">
  <defs
     id="defs2" />
  <metadata
     id="metadata5">
    <rdf:RDF>
      <cc:Work
         rdf:about="">
        <dc:format>image/svg+xml</dc:format>
        <dc:type
           rdf:resource="http://purl.org/dc/dcmitype/StillImage" />
        <dc:title></dc:title>
      </cc:Work>
    </rdf:RDF>
  </metadata>
  <g
     transform="translate(-0.06414062,-0.037399)"
     id="g5070">
    <path
       style="fill:#ffffff;fill-opacity:1;stroke:#9e0006;stroke-width:0.08687959;stroke-miterlimit:4;stroke-dasharray:none;stroke-opacity:1"
       d="M 86.674127,187.6243 C 76.713459,186.99573 65.106847,183.99211 54.94917,179.41433 38.650897,172.06917 23.701592,158.90203 14.1748,143.50083 7.1975838,132.22133 2.7840688,119.83758 0.85008,106.11341 0.09263737,100.73836 0.10032734,86.915412 0.86366659,81.691074 4.0446989,59.919904 13.208559,41.836314 28.698763,26.762425 39.36434,16.383495 50.272565,9.7455909 64.681023,4.8663968 90.984644,-4.0409044 121.72146,-0.05769109 145.06825,15.283851 c 14.25768,9.368951 25.29943,21.745948 32.78498,36.749574 5.6808,11.386289 8.7784,22.457869 9.70568,34.690469 3.58381,47.277166 -28.31759,89.651926 -74.74089,99.278616 -7.57822,1.57149 -17.342557,2.1772 -26.143893,1.62179 z m 2.224538,-28.87876 c 15.986445,-1.7864 27.918865,-5.63877 37.671435,-12.16215 6.77485,-4.53162 11.27088,-9.63681 13.55814,-15.3951 1.14432,-2.88085 1.19833,-3.24563 1.215,-8.20547 0.0166,-4.93457 -0.033,-5.29338 -1.00603,-7.27467 -1.94708,-3.96478 -5.20583,-6.92483 -10.51947,-9.55523 -7.03057,-3.48035 -11.62794,-3.98011 -41.316403,-4.49134 -22.354811,-0.38495 -27.648703,-0.78211 -30.713227,-2.304179 -4.680724,-2.324794 -4.348978,-6.777882 0.929679,-12.47932 1.319244,-1.424906 3.22885,-3.285839 4.243566,-4.135409 l 1.844942,-1.544674 3.796856,1.67676 c 5.00725,2.211287 9.151245,3.470706 14.337269,4.357299 25.864178,4.421702 53.164248,-5.80386 59.035308,-22.112373 1.30444,-3.623439 1.34213,-7.589894 0.11701,-12.314137 l -1.03055,-3.973989 0.98631,-1.9398 c 0.54248,-1.066892 1.41233,-2.218936 1.93301,-2.560099 0.89824,-0.588549 1.16894,-0.56848 5.2895,0.392135 4.69265,1.093983 5.3819,1.062606 8.26197,-0.376125 6.11129,-3.052882 5.78734,-11.344391 -0.57524,-14.723235 -1.21981,-0.647775 -2.14659,-0.802207 -4.84513,-0.807353 -4.10151,-0.0078 -5.98889,0.793841 -8.94807,3.800679 -1.8877,1.918097 -4.81161,6.996311 -5.9959,10.413609 l -0.43119,1.244184 -1.7667,-1.474402 c -5.62299,-4.692658 -14.04253,-8.594738 -22.16495,-10.272472 -4.5277,-0.935221 -11.29907,-1.311882 -17.048143,-0.948311 -8.988828,0.568453 -15.997664,2.374871 -23.887573,6.156649 -12.531645,6.006649 -18.916721,13.372227 -19.560917,22.564729 -0.370779,5.290886 1.2777,10.006261 5.057505,14.466707 1.029319,1.214668 1.871214,2.299131 1.870877,2.409916 -3.38e-4,0.110782 -1.37677,1.068097 -3.05874,2.127363 -7.5188,4.73517 -12.858937,10.243655 -15.195695,15.674746 -1.13975,2.649009 -1.201028,3.02655 -1.205232,7.425362 -0.0043,4.45369 0.04207,4.73262 1.187576,7.151 1.342991,2.83532 4.314658,6.17141 7.374366,8.27871 1.100104,0.75767 2.000185,1.47958 2.000185,1.60426 0,0.12467 -1.539495,0.79716 -3.421094,1.49443 -9.907239,3.67136 -17.509254,8.86989 -19.689489,13.4644 -3.910917,8.24165 1.755642,16.59091 14.212432,20.94101 5.411426,1.88974 10.671338,2.89674 20.576975,3.93941 2.656391,0.27962 23.263401,-0.1294 26.879832,-0.53352 z"
       id="path5061"
       transform="scale(0.26458333)" />
    <path
       style="fill:#ffffff;fill-opacity:1;stroke:#9e0006;stroke-width:0.08687959;stroke-miterlimit:4;stroke-dasharray:none;stroke-opacity:1"
       d="m 86.155068,81.632135 c -2.980304,-1.38651 -4.514521,-3.446254 -5.005451,-6.720006 -0.687913,-4.587339 3.345641,-21.825168 6.720523,-28.720873 3.016795,-6.164047 8.757814,-9.391617 15.94821,-8.965993 6.23452,0.369042 10.11451,3.909394 10.1353,9.248112 0.0145,3.735073 -1.65518,11.227102 -4.32652,19.412973 -2.80771,8.603767 -5.89695,12.819645 -11.237104,15.335219 -1.756942,0.827639 -2.629251,0.976231 -6.302857,1.073666 -3.698,0.09808 -4.485057,0.01012 -5.932101,-0.663098 z"
       id="path5063"
       transform="scale(0.26458333)" />
    <path
       style="fill:#ffffff;fill-opacity:1;stroke:#9e0006;stroke-width:0.08687959;stroke-miterlimit:4;stroke-dasharray:none;stroke-opacity:1"
       d="m 71.176667,152.61464 c -6.686454,-1.03956 -10.533589,-2.37341 -14.503196,-5.02845 -5.130994,-3.43182 -7.592613,-7.25493 -7.88853,-12.25159 -0.152882,-2.58148 -0.06488,-3.06925 0.936503,-5.19059 0.707576,-1.49894 1.891445,-3.10629 3.290357,-4.46736 3.657908,-3.55895 3.292097,-3.43922 7.760299,-2.53993 7.126624,1.43434 12.999744,1.90428 28.349019,2.26836 22.201671,0.52662 27.415291,1.11792 30.509151,3.46018 2.22482,1.68433 2.94684,3.2474 2.73,5.91002 -0.4031,4.94966 -3.59338,8.60359 -10.43764,11.95458 -7.2928,3.57059 -14.881219,5.52465 -23.728402,6.1102 -7.068699,0.46783 -13.06988,0.38834 -17.017561,-0.22542 z"
       id="path5065"
       transform="scale(0.26458333)" />
  </g>
</svg>
